<svg xmlns="http://www.w3.org/2000/svg" fill="none" viewBox="0 0 120 40" height="40" width="120">
<path fill="white" d="M8.87216 1.28189C7.63919 2.01811 6.73594 2.74973 6.64594 3.08486C6.44351 3.83919 6.44432 10.6776 6.64675 10.8803C6.73459 10.9681 7.29729 10.8668 7.89702 10.6551C9.72838 10.0089 11.3438 10.16 13.2792 11.1584C17.3895 13.2789 22.3749 16.3268 23.2895 17.2784C23.8346 17.8457 24.4116 18.7814 24.5716 19.3576C24.9581 20.7492 24.9543 31.9619 24.567 33.3784C24.4043 33.973 24.0816 34.673 23.8495 34.9341C23.1805 35.6865 23.6316 35.7646 24.907 35.117C27.2473 33.9289 28.3095 33.0159 29.0278 31.5741C29.7235 30.1781 29.7305 30.103 29.7289 23.9335C29.7281 20.2468 29.6062 17.2614 29.4305 16.6216C28.9743 14.9605 27.3641 13.6784 21.6595 10.433C15.9243 7.17054 14.8127 6.8273 12.7081 7.66919C12.1051 7.91054 11.5532 8.10811 11.4819 8.10811C11.4105 8.10811 11.3522 6.28378 11.3522 4.05405C11.3522 1.82432 11.2611 0.00972973 11.1495 0.0213514C11.0378 0.0332432 10.0132 0.600541 8.87216 1.28189ZM39.5719 0.247838C39.5105 0.30973 39.4603 4.67405 39.4603 9.94622V19.5322L44.273 19.4059C48.9189 19.2841 49.1341 19.2535 50.4781 18.5219C52.437 17.4557 53.3278 16.0776 53.4668 13.8992C53.5603 12.4292 53.477 12.0108 52.8919 11.0124C52.5157 10.3705 51.9038 9.68243 51.5324 9.48351L50.8568 9.12216L51.627 8.05892C52.5581 6.77351 52.8103 5.75649 52.5622 4.28703C52.3724 3.16513 51.0378 1.38838 49.8889 0.729189C49.3584 0.424595 39.837 -0.0197297 39.5719 0.247838ZM54.5657 0.288378C54.4211 0.377838 54.3476 4.37108 54.3892 9.88297L54.4603 19.3243H59.7305H65.0008L65.0792 17.0946L65.1578 14.8649H62.3135H59.4689L59.397 7.54351L59.3251 0.222162L57.0692 0.178649C55.8284 0.154595 54.7019 0.204054 54.5657 0.288378ZM66.2811 9.66216L66.3522 19.3243H69.0519H71.7514L78.4192 9.86486C82.0862 4.66216 85.047 0.364865 84.9986 0.315405C84.8381 0.150811 79.7568 0.222162 79.4808 0.392703C79.3316 0.484865 77.5435 2.95784 75.5068 5.88811C73.4703 8.81865 71.7327 11.3016 71.6457 11.4059C71.5586 11.5103 71.5224 8.98649 71.5651 5.79784L71.643 0H68.9265H66.2103L66.2811 9.66216ZM88.8878 0.373243C86.4638 1.23946 84.4643 3.11865 83.2805 5.64324C82.6673 6.95108 82.5684 7.52 82.5684 9.7354C82.5684 12.0924 82.6422 12.4586 83.4468 14.093C85.4965 18.2565 89.9019 20.4024 94.4659 19.4603C96.62 19.0154 97.9259 18.3168 99.4489 16.7938C100.727 15.5159 102.323 12.6397 102.023 12.1549C101.934 12.0103 100.794 11.8919 99.4895 11.8919H97.1184L96.2311 12.9959C95.047 14.4692 93.8949 15.133 92.5184 15.1341C89.5446 15.1368 87.5143 12.9441 87.5143 9.72973C87.5143 6.24676 90.0151 3.90513 93.1851 4.41946C94.4149 4.61892 95.3457 5.28595 96.1949 6.57513L96.8481 7.56757H99.5238C102.172 7.56757 102.198 7.56135 102.018 6.95946C101.249 4.38054 98.366 1.22541 96.0608 0.44C94.4903 -0.0951351 90.3076 -0.134054 88.8878 0.373243ZM103.627 0.247838C103.565 0.30973 103.514 4.65757 103.514 9.91V19.4595H105.939H108.365L108.439 15.473L108.514 11.4865L111.041 15.473L113.568 19.4595H116.374H119.179L119.258 25.0676C119.301 28.1519 119.338 25.5676 119.339 19.3243C119.341 11.8695 119.293 9.83541 119.198 13.3984L119.055 18.8238L115.874 14.2792L112.694 9.73459L115.739 5.13541C117.414 2.60595 118.754 0.465946 118.717 0.37973C118.68 0.293784 117.524 0.221622 116.149 0.21973L113.649 0.216486L111.082 4.30108L108.514 8.38595L108.379 4.30378L108.244 0.221351L105.992 0.178378C104.753 0.154595 103.689 0.185946 103.627 0.247838ZM2.53973 4.98622C-0.118382 6.72919 0.000807287 6.04324 0.000807287 19.5946C0.000807287 31.0062 0.0199965 31.4541 0.548915 32.3097C1.16162 33.3008 1.75027 33.6959 8.13513 37.3986L12.6205 40H14.633C16.5784 40 16.7189 39.9546 18.8724 38.6292C20.3497 37.72 21.3473 36.8851 21.8341 36.1497L22.5684 35.0411L22.6532 28.4916C22.7446 21.4227 22.603 20.2943 21.4535 18.9281C20.7746 18.1213 14.8032 14.4276 10.8646 12.3784C8.66621 11.2346 7.16567 11.0605 5.49973 11.7568C4.96594 11.9797 4.48351 12.1622 4.42729 12.1622C4.37108 12.1622 4.32513 10.3378 4.32513 8.10811C4.32513 5.87838 4.23405 4.06027 4.12243 4.06784C4.01108 4.07514 3.29865 4.48865 2.53973 4.98622ZM44.3251 5.94595V7.2973H45.6573C47.1462 7.2973 47.9184 6.7727 47.7854 5.85135C47.6819 5.13351 46.6473 4.60378 45.3386 4.59865L44.3251 4.59459V5.94595ZM44.3251 13.2432V14.8649H45.8865C47.787 14.8649 48.6495 14.3586 48.6495 13.2432C48.6495 12.1278 47.787 11.6216 45.8865 11.6216H44.3251V13.2432ZM4.64946 15.1892C4.22486 15.6138 4.20081 26.2938 4.62054 27.9613C4.78324 28.6068 5.23919 29.5086 5.63405 29.9654C6.22865 30.6532 17.1638 37.2973 17.7008 37.2973C17.793 37.2973 17.8311 36.7219 17.7859 36.0189L17.7035 34.7403L13.3886 32.2719C8.45621 29.4503 7.23567 28.3273 6.77729 26.1903C6.61784 25.4468 6.48729 22.7403 6.48729 20.1759C6.48729 15.4084 6.37675 14.8649 5.40621 14.8649C5.16838 14.8649 4.82784 15.0108 4.64946 15.1892ZM11.4035 21.3076C11.5703 25.3586 11.9322 25.8949 16.1613 28.3565C16.9484 28.8143 17.6476 29.1892 17.7154 29.1892C17.9605 29.1892 17.8286 24.4349 17.5565 23.4543C17.403 22.9016 16.9616 22.0741 16.5757 21.6154C15.927 20.8443 12.0797 18.3784 11.5257 18.3784C11.3895 18.3784 11.3357 19.6641 11.4035 21.3076ZM61.6224 20.6459C60.8049 20.8278 59.6495 21.2335 59.0549 21.5476C57.4681 22.3857 55.5395 24.5016 54.6765 26.3514C54.0238 27.7497 53.9197 28.3078 53.9197 30.4054C53.9197 32.4676 54.027 33.0641 54.6251 34.3243C55.6341 36.45 57.3041 38.2041 59.2411 39.1719C60.7651 39.9335 61.1192 40 63.6586 40C65.4162 40 66.8349 39.8532 67.5632 39.5965C70.333 38.6192 72.7622 35.9297 73.6578 32.8486C75.2362 27.4192 71.3784 21.4846 65.6684 20.5581C63.5914 20.2211 63.5276 20.2224 61.6224 20.6459ZM39.4603 30.4054V40H43.3424C48.0335 40 49.7859 39.7046 51.2165 38.6724C54.0405 36.6346 54.3386 32.3546 51.8038 30.2378C51.4811 29.9684 51.0487 29.7438 50.8427 29.7386C50.6232 29.7335 50.7543 29.5049 51.1595 29.1862C52.9259 27.7968 53.1165 24.5808 51.5389 22.7841C50.0243 21.0589 49.1208 20.8235 43.9873 20.8168L39.4603 20.8108V30.4054ZM72.6019 21.1486C72.7122 21.3346 73.9965 23.2776 75.4557 25.4665C76.9149 27.6554 78.1089 29.5484 78.1089 29.673C78.1089 29.7976 76.6605 32.1022 74.8903 34.7941C73.12 37.4862 71.7416 39.7586 71.827 39.8443C71.9127 39.93 73.1659 40 74.6119 40H77.2408L79.0797 36.7522C80.5514 34.1532 80.9854 33.573 81.2532 33.8468C81.4373 34.0351 82.3673 35.4662 83.3195 37.027L85.0511 39.8649L87.7962 39.9419C89.4719 39.9889 90.5414 39.9151 90.5414 39.7524C90.5414 39.6059 89.1427 37.3484 87.4332 34.7354C85.7238 32.1227 84.3281 29.8973 84.3319 29.7897C84.3357 29.6824 85.6 27.6486 87.1416 25.2703L89.9443 20.9459L87.3568 20.8681C85.9335 20.8251 84.623 20.8462 84.4441 20.9146C84.2654 20.9832 83.4797 22.157 82.6981 23.523L81.277 26.0062L80.4362 24.6357C79.9738 23.8819 79.2641 22.713 78.8589 22.0381L78.1222 20.8108H75.2619C73.0468 20.8108 72.4465 20.887 72.6019 21.1486ZM44.3251 26.4865V27.8378H45.6573C47.1462 27.8378 47.9184 27.3132 47.7854 26.3919C47.6819 25.6741 46.6473 25.1443 45.3386 25.1392L44.3251 25.1351V26.4865ZM44.3251 33.7838V35.4054H45.8865C47.787 35.4054 48.6495 34.8992 48.6495 33.7838C48.6495 32.6684 47.787 32.1622 45.8865 32.1622H44.3251V33.7838ZM92.0116 34.9449C91.9335 35.1487 91.9051 36.3392 91.9486 37.5903L92.0278 39.8649H94.5954H97.163V37.2973V34.7297L94.6584 34.6519C92.7314 34.5922 92.1211 34.6597 92.0116 34.9449Z" clip-rule="evenodd" fill-rule="evenodd"></path>
</svg>
